<svg width="128" height="128" viewBox="0 0 128 128" fill="none" xmlns="http://www.w3.org/2000/svg">
<rect width="128" height="128" rx="24" fill="#DDDDDD"/>
<g clip-path="url(#clip0_1_10)">
<path d="M64.4366 14C36.5597 14.0079 13.9921 36.6363 14 64.5132C14.0053 92.3901 36.5861 115.008 64.4604 115C92.3875 114.992 115.008 92.3637 115 64.4868C114.992 36.6125 92.3637 13.9921 64.4366 14ZM99.4418 44.2926H84.5437C82.9253 37.9827 80.602 31.9237 77.5685 26.3187C86.8617 29.4974 94.592 35.9604 99.4418 44.2926ZM64.4894 24.3017C68.6819 30.3608 71.9662 37.0772 74.139 44.2979L54.8504 44.3032C57.0179 37.0825 60.2996 30.3634 64.4894 24.3017ZM25.4158 74.609C24.6053 71.3775 24.1011 67.9929 24.0984 64.5079C24.0984 61.023 24.6027 57.641 25.4106 54.4069L42.4789 54.4016C42.0749 57.7334 41.7739 61.0679 41.7739 64.5026C41.7766 67.9374 42.0802 71.2692 42.4841 74.6037L25.4158 74.609ZM29.5582 84.71H44.4563C46.0747 91.0172 48.398 97.0789 51.4288 102.684C42.1356 99.5052 34.408 93.0924 29.5582 84.71ZM44.4457 44.3058H29.5476C34.3948 35.9261 42.1198 29.5106 51.4103 26.3267C48.3821 31.9316 46.0615 37.9933 44.4457 44.3058ZM64.5106 104.698C60.3154 98.6392 57.0311 91.9228 54.8583 84.7021L74.1496 84.6968C71.9794 91.9175 68.7004 98.6366 64.5106 104.698ZM76.3198 74.5984L52.6855 74.6037C52.2288 71.2719 51.875 67.9374 51.875 64.5026C51.875 61.0679 52.2261 57.6859 52.6802 54.4016L76.3145 54.3963C76.7686 57.678 77.125 61.0626 77.125 64.4974C77.125 67.9321 76.7739 71.264 76.3198 74.5984ZM77.5897 102.676C80.6179 97.0684 82.9385 91.0067 84.5543 84.6942H99.4498C94.6052 93.0237 86.8802 99.492 77.5897 102.676ZM86.5211 74.5958C86.9224 71.264 87.2261 67.9295 87.2261 64.4947C87.2234 61.0599 86.9198 57.7281 86.5159 54.3937L103.584 54.3884C104.392 57.6199 104.899 61.0045 104.899 64.4894C104.902 67.9744 104.397 71.3564 103.589 74.5905L86.5211 74.5958Z" fill="black"/>
</g>
<defs>
<clipPath id="clip0_1_10">
<rect width="101" height="101" fill="white" transform="translate(14 14)"/>
</clipPath>
</defs>
</svg>
